<?xml version="1.0" encoding="UTF-8" standalone="no"?>
<!-- Generator: Adobe Illustrator 24.0.2, SVG Export Plug-In . SVG Version: 6.00 Build 0)  -->

<svg
   version="1.1"
   id="Camada_1"
   x="0px"
   y="0px"
   viewBox="0 0 150 150"
   style="enable-background:new 0 0 150 150;"
   xml:space="preserve"
   sodipodi:docname="possibility_01.svg"
   inkscape:version="1.1.1 (3bf5ae0d25, 2021-09-20)"
   xmlns:inkscape="http://www.inkscape.org/namespaces/inkscape"
   xmlns:sodipodi="http://sodipodi.sourceforge.net/DTD/sodipodi-0.dtd"
   xmlns="http://www.w3.org/2000/svg"
   xmlns:svg="http://www.w3.org/2000/svg"><defs
   id="defs35" /><sodipodi:namedview
   id="namedview33"
   pagecolor="#ffffff"
   bordercolor="#666666"
   borderopacity="1.0"
   inkscape:pageshadow="2"
   inkscape:pageopacity="0.0"
   inkscape:pagecheckerboard="0"
   showgrid="false"
   inkscape:zoom="3.9220856"
   inkscape:cx="-24.73174"
   inkscape:cy="89.620685"
   inkscape:window-width="2560"
   inkscape:window-height="1017"
   inkscape:window-x="-8"
   inkscape:window-y="-8"
   inkscape:window-maximized="1"
   inkscape:current-layer="g25224" />
<style
   type="text/css"
   id="style2">
	.st0{opacity:0.2;}
	.st1{fill:#00344C;}
	.st2{fill:#100534;}
	.st3{fill:#0089D4;}
	.st4{fill:#56ACE0;}
	.st5{fill:#FFFFFF;}
	.st6{fill:#92DBFF;}
	.st7{fill:#194F82;}
</style>
<title
   id="title4">Ativo 34</title>
<g
   id="g30">
	<g
   id="Camada_2_1_">
		<g
   id="Camada_35">
			
			
			
			
			
			
			
			
			
		</g>
	<g
   id="g25224"><g
     class="st0"
     id="g12"
     transform="translate(6)">
				<path
   class="st1"
   d="m 74.5,146.9 v -3.2 c 35.7,-0.5 64.2,-29.8 63.8,-65.4 C 137.8,43.3 109.6,15 74.5,14.5 v -3.2 c 37.5,0.5 67.5,31.2 67,68.7 -0.5,36.7 -30.2,66.4 -67,66.9 z"
   id="path10" />
			</g><path
     class="st2"
     d="m 80.5,142.6 v -3.2 C 116.2,138.9 144.7,109.6 144.3,74 143.8,39 115.6,10.7 80.5,10.2 V 6.9 c 37.5,0.5 67.5,31.2 67,68.7 -0.5,36.8 -30.2,66.5 -67,67 z"
     id="path14" /><path
     class="st3"
     d="M 80.5,146.4 C 41,146.9 8.5,115.2 8,75.6 7.5,36 39.2,3.6 78.8,3.1 c 0.6,0 1.2,0 1.8,0 V 13.9 C 47,13.5 19.4,40.3 19,73.9 c -0.4,33.6 26.4,61.2 60,61.6 0.5,0 1.1,0 1.6,0 v 10.9 z"
     id="path16"
     style="fill:#0097fd;fill-opacity:1" /><g
     id="g6700"
     transform="translate(3.4503363,30.850933)"><g
       id="Hand_Growth"
       data-name="Hand Growth"
       transform="translate(-100.04728,-27.41443)"><g
         id="g18792"
         transform="translate(3.314563,6.6291261)"><path
           id="path2155"
           style="fill:#0097fd;fill-opacity:1;stroke:#194f82;stroke-width:3.39426;stroke-miterlimit:4;stroke-dasharray:none;stroke-opacity:1"
           d="M 147.90393,59.47735 A 28.792282,29.264129 0 0 0 176.4739,85.583126 28.792282,29.264129 0 0 0 205.04386,59.47735 Z" /><path
           d="m 205.6089,76.482144 c -1.00242,-1.766852 -3.10233,-2.594091 -5.04047,-1.98564 l -13.15274,4.090079 c -0.55425,3.024323 -3.18773,5.222449 -6.26241,5.227155 h -15.69843 c -1.13143,0 -1.13143,-1.697128 0,-1.697128 h 15.69843 c 2.57757,0 4.6671,-2.089533 4.6671,-4.667103 0,-2.577569 -2.08953,-4.667103 -4.6671,-4.667103 h -15.29961 l -0.56854,-0.687337 C 161.01559,66.975521 153.51246,67.127935 148.30548,71.2904 l -11.37953,-0.442722 v 20.603136 h 41.74953 c 1.36174,0.0034 2.71193,-0.249766 3.97976,-0.746736 l 20.75588,-8.035901 c 2.47312,-0.953164 3.51517,-3.88617 2.19778,-6.186033 z"
           style="fill:#194f82;fill-opacity:1;stroke-width:0.848564"
           id="path1520"
           sodipodi:nodetypes="ccccsssssccccccccc" /><circle
           style="fill:#ffffff;fill-opacity:1;stroke:#194f82;stroke-width:2.54569;stroke-miterlimit:4;stroke-dasharray:none;stroke-opacity:1"
           id="path3515"
           cx="178.54378"
           cy="43.065762"
           r="11.034122" /><text
           xml:space="preserve"
           style="font-style:normal;font-weight:normal;font-size:10.408px;line-height:1.25;font-family:sans-serif;fill:#194f82;fill-opacity:1;stroke:none;stroke-width:0.260199"
           x="172.08707"
           y="46.732437"
           id="text3837"><tspan
             sodipodi:role="line"
             x="172.08707"
             y="46.732437"
             style="font-style:normal;font-variant:normal;font-weight:bold;font-stretch:normal;font-family:'SF Mono';-inkscape-font-specification:'SF Mono Bold';fill:#194f82;fill-opacity:1;stroke-width:0.260199"
             id="tspan5357">0$</tspan></text></g></g></g><g
     id="g25398"
     transform="matrix(1.021206,0,0,1.021206,-128.39721,-0.16747628)"
     style="stroke:#194f82;stroke-opacity:1;stroke-width:2.93770307;stroke-miterlimit:4;stroke-dasharray:none"><path
       class="st3"
       d="m 127.63877,72.98726 c 0,6.10012 5.04838,11.148497 11.14849,11.148497 6.10013,0 11.14849,-5.048377 11.14849,-11.148497 0,-6.100121 -5.04836,-11.148497 -11.14849,-11.148497 0,0 0,0 0,0 -6.10011,0 -11.14849,5.048376 -11.14849,11.148497 z"
       id="path18"
       style="fill:#0097fd;stroke:#194f82;stroke-width:2.93770307;fill-opacity:1;stroke-opacity:1;stroke-miterlimit:4;stroke-dasharray:none" /></g></g></g>
</g>
<style
   type="text/css"
   id="style37">
	.st0{fill:#008AD0;}
	.st1{fill:#333333;}
</style></svg>
