<?xml version="1.0" encoding="UTF-8" standalone="no"?>
<!-- Generator: Adobe Illustrator 24.0.2, SVG Export Plug-In . SVG Version: 6.00 Build 0)  -->

<svg
   version="1.1"
   id="Camada_1"
   x="0px"
   y="0px"
   viewBox="0 0 150 150"
   style="enable-background:new 0 0 150 150;"
   xml:space="preserve"
   sodipodi:docname="possibility_03.svg"
   inkscape:version="1.1.1 (3bf5ae0d25, 2021-09-20)"
   xmlns:inkscape="http://www.inkscape.org/namespaces/inkscape"
   xmlns:sodipodi="http://sodipodi.sourceforge.net/DTD/sodipodi-0.dtd"
   xmlns="http://www.w3.org/2000/svg"
   xmlns:svg="http://www.w3.org/2000/svg"><defs
   id="defs35" /><sodipodi:namedview
   id="namedview33"
   pagecolor="#ffffff"
   bordercolor="#666666"
   borderopacity="1.0"
   inkscape:pageshadow="2"
   inkscape:pageopacity="0.0"
   inkscape:pagecheckerboard="0"
   showgrid="false"
   inkscape:zoom="2.7733333"
   inkscape:cx="-95.552885"
   inkscape:cy="53.185096"
   inkscape:window-width="2560"
   inkscape:window-height="1017"
   inkscape:window-x="-8"
   inkscape:window-y="-8"
   inkscape:window-maximized="1"
   inkscape:current-layer="g1063" />
<style
   type="text/css"
   id="style2">
	.st0{opacity:0.2;}
	.st1{fill:#00344C;}
	.st2{fill:#100534;}
	.st3{fill:#0089D4;}
	.st4{fill:#56ACE0;}
	.st5{fill:#FFFFFF;}
	.st6{fill:#92DBFF;}
	.st7{fill:#194F82;}
</style>
<title
   id="title4">Ativo 34</title>
<g
   id="g30">
	<g
   id="Camada_2_1_">
		<g
   id="Camada_35">
			
			
			
			
			
			
			
			
			
		</g>
	<g
   id="g25224"><g
     class="st0"
     id="g12"
     transform="translate(6)">
				<path
   class="st1"
   d="m 74.5,146.9 v -3.2 c 35.7,-0.5 64.2,-29.8 63.8,-65.4 C 137.8,43.3 109.6,15 74.5,14.5 v -3.2 c 37.5,0.5 67.5,31.2 67,68.7 -0.5,36.7 -30.2,66.4 -67,66.9 z"
   id="path10" />
			</g><path
     class="st2"
     d="m 80.5,142.6 v -3.2 C 116.2,138.9 144.7,109.6 144.3,74 143.8,39 115.6,10.7 80.5,10.2 V 6.9 c 37.5,0.5 67.5,31.2 67,68.7 -0.5,36.8 -30.2,66.5 -67,67 z"
     id="path14" /><path
     class="st3"
     d="M 80.5,146.4 C 41,146.9 8.5,115.2 8,75.6 7.5,36 39.2,3.6 78.8,3.1 c 0.6,0 1.2,0 1.8,0 V 13.9 C 47,13.5 19.4,40.3 19,73.9 c -0.4,33.6 26.4,61.2 60,61.6 0.5,0 1.1,0 1.6,0 v 10.9 z"
     id="path16"
     style="fill:#00d663;fill-opacity:1" /><g
     id="g25398"
     transform="matrix(1.021206,0,0,1.021206,-128.39721,-0.16747628)"
     style="stroke:#217844;stroke-opacity:1;stroke-width:2.93770307;stroke-miterlimit:4;stroke-dasharray:none;fill:#00d663;fill-opacity:1"><path
       class="st3"
       d="m 127.63877,72.98726 c 0,6.10012 5.04838,11.148497 11.14849,11.148497 6.10013,0 11.14849,-5.048377 11.14849,-11.148497 0,-6.100121 -5.04836,-11.148497 -11.14849,-11.148497 0,0 0,0 0,0 -6.10011,0 -11.14849,5.048376 -11.14849,11.148497 z"
       id="path18"
       style="fill:#00d663;stroke:#217844;stroke-width:2.93770307;fill-opacity:1;stroke-opacity:1;stroke-miterlimit:4;stroke-dasharray:none" /></g><g
     id="g1063"
     transform="matrix(1.2593285,0,0,1.2593285,36.554224,32.36738)">
	<g
   id="g1055">
		<polygon
   fill="#656d78"
   points="6,9.505 32,3.505 58,9.505 46.84,12.075 46.84,12.085 32,15.505 17.14,12.075 "
   id="polygon1039"
   style="fill:#217844;fill-opacity:1" />
		<polygon
   fill="#545c66"
   points="32,15.505 46.84,12.085 47,12.755 47,22.495 17,22.495 17,12.685 17.14,12.075 "
   id="polygon1041"
   style="fill:#16502d;fill-opacity:1" />
		<path
   fill="#656d78"
   d="m 53,55.495 v 6 H 11 v -6 c 0,-4.42 3.58,-8 8,-8 h 6 v 0.01 l 7,8.99 7,-8.99 v -0.01 h 6 c 4.42,0 8,3.58 8,8 z"
   id="path1043"
   style="fill:#217844;fill-opacity:1" />
		<g
   id="g1047"
   style="fill:#16502d;fill-opacity:1">
			<path
   fill="#545c66"
   d="m 45,47.495 h -4.004 c 4.42,0 8,3.58 8,8 v 6 H 53 v -6 c 0,-4.42 -3.58,-8 -8,-8 z"
   id="path1045"
   style="fill:#16502d;fill-opacity:1" />
		</g>
		<path
   fill="#eac6bb"
   d="m 39,47.495 v 0.01 l -7,8.99 -7,-8.99 v -0.01 -5.73 c 2.09,1.101 4.47,1.73 7,1.73 2.529,0 4.909,-0.63 7,-1.73 z"
   id="path1049"
   style="fill:#8dd35f" />
		<path
   fill="#eac6bb"
   d="m 47,22.495 v 6 c 0,5.76 -3.24,10.76 -8,13.27 -2.091,1.101 -4.471,1.73 -7,1.73 -2.53,0 -4.91,-0.63 -7,-1.73 -4.761,-2.51 -8,-7.51 -8,-13.27 v -6 z"
   id="path1051"
   style="fill:#c6e9af" />
		<path
   fill="#d3b1a9"
   d="m 42.996,22.495 v 6 c 0,5.76 -3.24,10.76 -8,13.27 -1.529,0.805 -3.215,1.354 -4.998,1.594 0.655,0.088 1.322,0.137 2.002,0.137 2.529,0 4.909,-0.63 7,-1.73 4.76,-2.51 8,-7.51 8,-13.27 v -6 h -4.004 z"
   id="path1053"
   style="fill:#8dd35f" />
	<path
   d="m 35.841159,38.082009 c -0.397809,0 -0.720669,-0.322859 -0.720669,-0.720667 -0.003,-1.718072 -1.40386,-3.116455 -3.119049,-3.11905 -1.718072,0.0029 -3.11905,1.400978 -3.121933,3.11905 0,0.397808 -0.32286,0.720667 -0.720669,0.720667 -0.397808,0 -0.720665,-0.322859 -0.720665,-0.720667 0.003,-2.513689 2.046694,-4.560385 4.563267,-4.560385 2.513689,0 4.557501,2.046984 4.560384,4.560385 0,0.397808 -0.322861,0.720667 -0.720666,0.720667 z"
   id="path34992"
   style="fill:#2d5016;stroke-width:0.288267" /></g>
	<path
   fill="#656d78"
   d="m 32,16.504 c -0.075,0 -0.151,-0.009 -0.225,-0.025 l -26,-6 C 5.321,10.374 5,9.97 5,9.504 5,9.038 5.321,8.634 5.775,8.529 l 26,-6 c 0.146,-0.033 0.303,-0.033 0.449,0 l 26,6 C 58.679,8.634 59,9.038 59,9.504 c 0,0.466 -0.321,0.87 -0.775,0.975 l -26,6 C 32.151,16.495 32.075,16.504 32,16.504 Z M 10.447,9.504 32,14.478 53.553,9.504 32,4.53 Z"
   id="path1057"
   style="fill:#217844;fill-opacity:1" />
	<path
   fill="#ffce54"
   d="M 57.998,10.502 H 32 c -0.553,0 -1,-0.447 -1,-1 0,-0.553 0.447,-1 1,-1 h 25.998 c 0.553,0 1,0.447 1,1 0,0.553 -0.447,1 -1,1 z"
   id="path1059"
   style="fill:#002b00" />
	<path
   fill="#ffce54"
   d="m 57.998,20.502 c -0.553,0 -1,-0.447 -1,-1 v -10 c 0,-0.553 0.447,-1 1,-1 0.553,0 1,0.447 1,1 v 10 c 0,0.553 -0.447,1 -1,1 z"
   id="path1061"
   style="fill:#002b00" />
</g></g></g>
</g>
<style
   type="text/css"
   id="style37">
	.st0{fill:#008AD0;}
	.st1{fill:#333333;}
</style></svg>
